<svg width="494" height="281" viewBox="0 0 494 281" fill="none" xmlns="http://www.w3.org/2000/svg">
<g clip-path="url(#clip0)">
<path d="M82.6546 232.472C77.8706 232.472 73.8226 231.981 70.5106 231C67.1986 229.957 64.0706 228.393 61.1266 226.308L64.0706 220.972C68.9159 224.897 75.1106 226.86 82.6546 226.86C87.0093 226.86 90.5973 225.787 93.4186 223.64C96.2399 221.432 97.6506 218.427 97.6506 214.624C97.6506 212.355 96.9759 210.453 95.6266 208.92C94.2773 207.387 92.5906 206.16 90.5666 205.24C88.6039 204.32 85.9053 203.247 82.4706 202.02C78.4226 200.609 75.1413 199.291 72.6266 198.064C70.1119 196.776 67.9653 195.028 66.1866 192.82C64.4693 190.551 63.6106 187.668 63.6106 184.172C63.6106 178.713 65.4813 174.543 69.2226 171.66C73.0253 168.716 77.8706 167.244 83.7586 167.244C87.6226 167.244 91.1186 167.765 94.2466 168.808C97.3746 169.789 100.319 171.292 103.079 173.316L100.227 178.56C95.3813 174.757 89.9226 172.856 83.8506 172.856C80.0479 172.856 76.8893 173.807 74.3746 175.708C71.9213 177.548 70.6946 180.277 70.6946 183.896C70.6946 186.104 71.3386 187.975 72.6266 189.508C73.9759 190.98 75.6319 192.176 77.5946 193.096C79.5573 194.016 82.2559 195.089 85.6906 196.316C89.7999 197.788 93.1119 199.168 95.6266 200.456C98.1413 201.683 100.288 203.431 102.067 205.7C103.845 207.969 104.735 210.883 104.735 214.44C104.735 218.059 103.784 221.248 101.883 224.008C100.043 226.707 97.4359 228.792 94.0626 230.264C90.7506 231.736 86.9479 232.472 82.6546 232.472ZM200.131 168.44L179.983 231.736H173.359L155.971 178.928L138.583 231.736H132.051L112.823 168.44H120.091L135.455 222.72L153.027 168.44H159.007L176.763 222.628L192.863 168.44H200.131ZM245.189 210.76H219.429L211.885 231H204.801L229.089 167.612H235.621L260.001 231H252.733L245.189 210.76ZM243.073 205.24L232.309 176.352L221.453 205.24H243.073ZM291.426 202.664H279.742V231H272.566V168.44H292.898C299.706 168.44 304.92 169.973 308.538 173.04C312.157 176.107 313.966 180.216 313.966 185.368C313.966 189.845 312.678 193.525 310.102 196.408C307.588 199.229 303.877 201.039 298.97 201.836L319.854 231H311.574L291.426 202.664ZM279.742 197.144H292.898C302.16 197.144 306.79 193.28 306.79 185.552C306.79 181.933 305.594 179.112 303.202 177.088C300.81 175.003 297.376 173.96 292.898 173.96H279.742V197.144ZM377.621 173.96H356.001V231H348.825V173.96H327.021V168.44H377.621V173.96ZM407.709 232.472C402.925 232.472 398.877 231.981 395.565 231C392.253 229.957 389.125 228.393 386.181 226.308L389.125 220.972C393.971 224.897 400.165 226.86 407.709 226.86C412.064 226.86 415.652 225.787 418.473 223.64C421.295 221.432 422.705 218.427 422.705 214.624C422.705 212.355 422.031 210.453 420.681 208.92C419.332 207.387 417.645 206.16 415.621 205.24C413.659 204.32 410.96 203.247 407.525 202.02C403.477 200.609 400.196 199.291 397.681 198.064C395.167 196.776 393.02 195.028 391.241 192.82C389.524 190.551 388.665 187.668 388.665 184.172C388.665 178.713 390.536 174.543 394.277 171.66C398.08 168.716 402.925 167.244 408.813 167.244C412.677 167.244 416.173 167.765 419.301 168.808C422.429 169.789 425.373 171.292 428.133 173.316L425.281 178.56C420.436 174.757 414.977 172.856 408.905 172.856C405.103 172.856 401.944 173.807 399.429 175.708C396.976 177.548 395.749 180.277 395.749 183.896C395.749 186.104 396.393 187.975 397.681 189.508C399.031 190.98 400.687 192.176 402.649 193.096C404.612 194.016 407.311 195.089 410.745 196.316C414.855 197.788 418.167 199.168 420.681 200.456C423.196 201.683 425.343 203.431 427.121 205.7C428.9 207.969 429.789 210.883 429.789 214.44C429.789 218.059 428.839 221.248 426.937 224.008C425.097 226.707 422.491 228.792 419.117 230.264C415.805 231.736 412.003 232.472 407.709 232.472Z" fill="white"/>
<path d="M83.3818 122.632C78.0778 122.632 73.5898 122.088 69.9178 121C66.2458 119.844 62.7778 118.11 59.5138 115.798L62.7778 109.882C68.1498 114.234 75.0178 116.41 83.3818 116.41C88.2098 116.41 92.1878 115.22 95.3158 112.84C98.4438 110.392 100.008 107.06 100.008 102.844C100.008 100.328 99.2598 98.22 97.7638 96.52C96.2678 94.82 94.3978 93.46 92.1538 92.44C89.9778 91.42 86.9858 90.23 83.1778 88.87C78.6898 87.306 75.0518 85.844 72.2638 84.484C69.4758 83.056 67.0958 81.118 65.1238 78.67C63.2198 76.154 62.2678 72.958 62.2678 69.082C62.2678 63.03 64.3418 58.406 68.4898 55.21C72.7058 51.946 78.0778 50.314 84.6058 50.314C88.8898 50.314 92.7658 50.892 96.2338 52.048C99.7018 53.136 102.966 54.802 106.026 57.046L102.864 62.86C97.4918 58.644 91.4398 56.536 84.7078 56.536C80.4918 56.536 76.9898 57.59 74.2018 59.698C71.4818 61.738 70.1218 64.764 70.1218 68.776C70.1218 71.224 70.8358 73.298 72.2638 74.998C73.7598 76.63 75.5958 77.956 77.7718 78.976C79.9478 79.996 82.9398 81.186 86.7478 82.546C91.3038 84.178 94.9758 85.708 97.7638 87.136C100.552 88.496 102.932 90.434 104.904 92.95C106.876 95.466 107.862 98.696 107.862 102.64C107.862 106.652 106.808 110.188 104.7 113.248C102.66 116.24 99.7698 118.552 96.0298 120.184C92.3578 121.816 88.1418 122.632 83.3818 122.632ZM173.439 57.76H149.469V121H141.513V57.76H117.339V51.64H173.439V57.76ZM215.366 122.632C209.45 122.632 204.418 121.476 200.27 119.164C196.19 116.852 193.096 113.656 190.988 109.576C188.948 105.496 187.928 100.77 187.928 95.398V51.64H195.884V95.296C195.884 101.96 197.55 107.162 200.882 110.902C204.282 114.574 209.11 116.41 215.366 116.41C221.554 116.41 226.314 114.574 229.646 110.902C233.046 107.162 234.746 101.96 234.746 95.296V51.64H242.702V95.194C242.702 100.634 241.648 105.428 239.54 109.576C237.5 113.656 234.406 116.852 230.258 119.164C226.178 121.476 221.214 122.632 215.366 122.632ZM288.611 51.64C295.683 51.64 301.701 53.136 306.665 56.128C311.697 59.12 315.471 63.234 317.987 68.47C320.503 73.706 321.761 79.622 321.761 86.218C321.761 93.018 320.503 99.036 317.987 104.272C315.471 109.508 311.731 113.622 306.767 116.614C301.803 119.538 295.751 121 288.611 121H265.049V51.64H288.611ZM288.611 114.88C296.635 114.88 302.857 112.33 307.277 107.23C311.697 102.062 313.907 95.092 313.907 86.32C313.907 77.684 311.697 70.782 307.277 65.614C302.857 60.378 296.635 57.76 288.611 57.76H273.005V114.88H288.611ZM339.258 51.64H347.214V121H339.258V51.64ZM397.974 122.632C390.834 122.632 384.748 121.034 379.716 117.838C374.752 114.574 370.978 110.222 368.394 104.782C365.878 99.274 364.62 93.188 364.62 86.524C364.62 79.86 365.878 73.774 368.394 68.266C370.978 62.758 374.752 58.406 379.716 55.21C384.748 51.946 390.834 50.314 397.974 50.314C405.046 50.314 411.098 51.946 416.13 55.21C421.162 58.406 424.936 62.758 427.452 68.266C430.036 73.706 431.328 79.724 431.328 86.32C431.328 93.052 430.036 99.172 427.452 104.68C424.936 110.188 421.162 114.574 416.13 117.838C411.098 121.034 405.046 122.632 397.974 122.632ZM397.974 116.41C403.278 116.41 407.834 115.118 411.642 112.534C415.518 109.95 418.442 106.38 420.414 101.824C422.386 97.268 423.372 92.134 423.372 86.422C423.372 80.71 422.386 75.61 420.414 71.122C418.442 66.566 415.518 62.996 411.642 60.412C407.834 57.828 403.278 56.536 397.974 56.536C392.67 56.536 388.08 57.828 384.204 60.412C380.396 62.996 377.506 66.566 375.534 71.122C373.562 75.61 372.576 80.71 372.576 86.422C372.576 92.134 373.562 97.268 375.534 101.824C377.506 106.38 380.396 109.95 384.204 112.534C388.08 115.118 392.67 116.41 397.974 116.41Z" fill="white"/>
<rect x="40" y="141" width="411" height="5" fill="white"/>
</g>
<defs>
<clipPath id="clip0">
<rect width="494" height="281" fill="white"/>
</clipPath>
</defs>
</svg>
